<?xml version="1.0" encoding="utf-8"?>
<!-- Generator: Adobe Illustrator 17.1.0, SVG Export Plug-In . SVG Version: 6.00 Build 0)  -->
<!DOCTYPE svg PUBLIC "-//W3C//DTD SVG 1.1//EN" "http://www.w3.org/Graphics/SVG/1.1/DTD/svg11.dtd">
<svg version="1.1" id="Layer_1" xmlns="http://www.w3.org/2000/svg" xmlns:xlink="http://www.w3.org/1999/xlink" x="0px" y="0px"
	 viewBox="0 0 387.6 214.8" enable-background="new 0 0 387.6 214.8" xml:space="preserve">
<g opacity="5.000000e-02">
	<path fill="#FFFFFF" d="M152.1,86.6c21.6-13,31.5-28.6,31.5-28.6s-3.2,13.9-18,27.3c11-0.3,23.3,0.2,36.6,0.7
		c29.7-10.8,42.1-28.8,42.1-28.8s-2.7,16.7-25.9,29.4c12.1,0.4,24.9,0.6,38,0.1c21-7.9,31.1-19.2,31.1-19.2s-4.3,9.5-15.7,18.4
		c7.2-0.5,14.5-1.3,21.8-2.4c47.6-7,89.9-46.7,93.9-50.6c-2.2,2-15.1,12.5-48.9,13.8C301.3,48.3,243-8.5,177.4,14.8
		c-78.3,27.8-88,102.6-88,102.6S120.9,92.6,152.1,86.6z"/>
	<path fill="#FFFFFF" d="M260.4,94.6c-55.4,4.3-68.7-10-125.3,8.8c-56.7,18.7-82.9,81-82.9,81s-2.8,9.6,5.4,12.2
		c8.1,2.6,14.2-4.8,14.2-4.8s18.1-47,66.4-67.6c48.3-20.6,93.4-14.5,129-22.4c35.6-8,68.9-30.9,68.9-30.9S295,91.9,260.4,94.6z"/>
	<path fill="#FFFFFF" d="M57.4,53.5L57.4,53.5c-2.8-2.9-6.2-5-12.4-16.4C38.8,25.7,42.3,0,42.3,0C14.8,69.9,23.8,96.5,23.8,96.5
		s7.8,34.2,4.4,56.9c-4.5,29.8-26.7,51.4-26.7,51.4s-3,5.1-0.5,8.6c2.5,3.4,7.3-0.4,7.3-0.4s30.9-29.8,31.3-63.4
		c0.3-25.6-7-41.4-9.5-56.3s-1.6-31.1-1.6-31.1c1.8,9.2,7.3,35.6,8.9,40.9c3.6-15,12.3-20.5,12.3-20.5s-7.7,11.1-9.5,28.9
		c2,6.6,4,12.7,5.3,18.3c5.1-11,12-16.2,12-16.2s-6.9,9.1-10.9,23.4c1,17.3-8.2,39.5-8.2,39.5s38-24.6,42.3-71.4
		C83,81.1,70.8,67.2,57.4,53.5z"/>
</g>
</svg>
